<?xml version="1.0" encoding="UTF-8"?>
<svg id="b" data-name="Layer 2" xmlns="http://www.w3.org/2000/svg" width="30.93mm" height="28.69mm" viewBox="0 0 87.68 81.32">
  <g id="c" data-name="Layer 1">
    <g>
      <path d="M29.21,41.19c1.78-3.55-.02-6.19-3.02-7.5l-.63-3.97-9.6-.03s-.3,4.04-.3,4.04c-.05.62-.85,2.37-1.29,3.14l-7.37-7.09c-2.33.14-6.74-1.5-6.76-3.65,0,0-.05-5.32-.05-5.32,0,0,0-10.9,0-10.9,0,0-.07-5.08-.07-5.08-.02-1.36,3.14-3.71,4.58-3.71,0,0,26.99.03,26.99.03,1.65,0,4.07,3.1,4.1,4.73l.2,11.55c1.56-.1,4.29-2.04,4.31-3.52l.06-8.05C40.38,2.79,42.42,0,45.92,0c0,0,37.55.04,37.55.04,1.27,0,4.23,2.5,4.21,3.74,0,0-.09,5.14-.09,5.14l.03,9.93c.16,7.27.63,8.33-7.27,10.23,0,0-5.32,4.91-5.32,4.91-.36.33-1.47.73-1.93.88s-.87-1.65-.91-2.15c0,0-.32-4.05-.32-4.05h-10.85s-.63,5.42-.63,5.42c-3.05,1.17-4.07,3.58-2.54,6.72-4.96,8.02-8.51.3-11.32,6.58-.61,1.35-5,1.52-5.78.29-5.7-7.54-4.95,1.9-11.53-6.49ZM80.81,20.78c-2.42.05-19.36,0-21.36.28-.81.05-2.27,1.36-2.58,2.13-.25.62,1.18,2.39,1.97,2.4l14.59.26c.75.01,1.74,2.6,2.01,3.47l3.16-2.68c.61-.52,3.04-.86,4.14-.95s2.57-2.47,2.57-3.7V5.75c.02-1-1.98-2.8-3.04-2.8h-36.12c-.68,0-2.94,1.25-2.93,2.06,0,0,.12,8.54.12,8.54,5.55-.84,10.6-.99,16.6-.8,0,0,20.23.18,20.23.18.51,0,1.94,1.44,1.52,1.52s-1.67.3-2.13.31c-7.65.1-24.12.53-31.63,1.06-15.15-.91,25.31,4.01,8.21,2.52,4.26.51,20.28.45,24.87.54,0,0-.19,1.89-.19,1.89ZM29.41,20.93l3.53-4.34.08-10.44c0-.47-1.65-2.03-2.1-2.17l-24.62-.06c-1.48,0-3.85,1.51-3.84,2.66l.03,17.57c0,3.53,4.11,1.5,7.25,4.13l2.67,2.25,1.15-3.54,15-.49c1.36-.04,1.28-4.61.86-5.56ZM44.22,45.37l1.54-2.2c2.07-.73,5.98-1.8,8.39-2.36.5-.12-.01-1.04-.56-2.55,0,0,2.52-5.03,2.52-5.03.37-.74,2.52-2.46,1.87-2.97l-2.13-1.71-2.01-5.34c-.09-.61.46-2.65-.16-2.68l-2.96-.17c-5.22-.3-6.18-4.89-7.24-4.02l-1.95,1.61c-1.17.97-4.1,2.2-5.55,2.63-.92-.11-3.01-.43-3.03.26,0,0-.06,2.34-.06,2.34-.03,1.33-1.03,4.15-1.93,5.24l-2.13,2.58c-1.15,1.4,3.82,1.02,4.06,7.44,0,0,.1,2.72.1,2.72.02.55,1.78.48,2.33.47,6.68-.13,7.65,5.53,8.92,3.72Z"/>
      <path d="M85.86,81.22l-38.84.1c-.88,0-2.14-.32-2.14-.74-.02-8.59,5.92-15.68,14.27-19-4.01-3.9-5.83-8.87-3.74-14.11,4.85-12,23.66-7.63,21.97,6.1-.41,2.62-2.57,5.51-4.56,8.14,9.92,1.8,17.65,19.51,13.03,19.52ZM74.62,51.9c0-4.77-3.87-8.64-8.64-8.64-11.45.45-11.45,16.82,0,17.27,4.77,0,8.64-3.87,8.64-8.64ZM83.91,78.32c-1.16-9-9-14.04-16.91-14.97-12.43-1.45-23.21,15.03-16.92,15.02l33.83-.06Z"/>
      <path d="M40.03,81.32s-39.7-.06-39.7-.06c-2.18-7.92,6.75-17.39,13.98-19.8-13.06-11.47,3-28.04,14.37-18.06,5.49,5.23,4.98,12.67-1.08,18.23,9.64,1.71,18.89,19.7,12.43,19.69ZM29.59,51.87c0-4.77-3.87-8.64-8.64-8.64-11.46.46-11.46,16.83,0,17.28,4.77,0,8.64-3.87,8.64-8.64ZM39.06,78.24c-4.05-19.97-32.69-19.29-36.23.13,0,0,36.23-.13,36.23-.13Z"/>
      <rect x="46.77" y="7.01" width="34.71" height="2.9"/>
      <path d="M17.8,20.16c-2.11-3.97.84-4.45,3.04-8.26.47-.82-1.33-3.42-2.25-3.25-1.2.23-3.18,1.32-3.76,2.3l-1.22,2.09c-.35.6-1.54-1.52-1.45-2.29.33-2.91,3.58-4.97,6.53-4.79,2.69.17,5.8,3.89,4.97,6.58-1.01,2.75-3.96,5.53-5.86,7.62Z"/>
      <path d="M19.29,21.77c-.03,1.47-2.22,1.47-2.24,0,.03-1.47,2.22-1.47,2.24,0Z"/>
      <path d="M52.31,30.95c0,4.88-3.96,8.84-8.84,8.84-11.73-.47-11.72-17.22,0-17.68,4.88,0,8.84,3.96,8.84,8.84ZM49.49,30.93c0-3.33-2.7-6.03-6.03-6.03-7.99.28-7.98,11.79,0,12.07,3.33,0,6.03-2.7,6.03-6.03Z"/>
    </g>
  </g>
</svg>