<svg xmlns="http://www.w3.org/2000/svg" width="14.428" height="11.542" viewBox="0 0 14.428 11.542">
  <path id="Icon_awesome-user-clock" data-name="Icon awesome-user-clock" d="M11.182,5.05A3.246,3.246,0,1,0,14.428,8.3,3.244,3.244,0,0,0,11.182,5.05Zm1.443,3.388a.22.22,0,0,1-.219.219H11.04a.22.22,0,0,1-.219-.219V6.711a.22.22,0,0,1,.219-.219h.284a.22.22,0,0,1,.219.219V7.935h.863a.22.22,0,0,1,.219.219ZM7.214,8.3a3.954,3.954,0,0,1,.41-1.747,3,3,0,0,0-.555-.056H6.693a3.924,3.924,0,0,1-3.287,0H3.03A3.031,3.031,0,0,0,0,9.523v.938a1.082,1.082,0,0,0,1.082,1.082H8.907A3.968,3.968,0,0,1,7.214,8.3ZM5.05,5.771A2.886,2.886,0,1,0,2.164,2.886,2.885,2.885,0,0,0,5.05,5.771Z" />
</svg>
